PathFileType	4	(X/Y/Z)	C:/Users/opensim2020/Desktop/walking_exp_matlab/subject06_walking15_straight_01.trc	
DataRate	CameraRate	NumFrames	NumMarkers	Units	OrigDataRate	OrigDataStartFrame	OrigNumFrames	
100.00	100.00	6	47	mm	100.00	950	232	
Frame#	Time	LFHD			RFHD			LBHD			RBHD			C7			T10			CLAV			STRN			RBAK			LSHO			LUPA			LELB			LFRM			LWRA			LWRB			LFIN			RSHO			RUPA			RELB			RFRM			RWRA			RWRB			RFIN			LASI			RASI			LPSI			RPSI			LTHI			LKNE			LTIB			LANK			LHEE			LTOE			RTHI			RKNE			RTIB			RANK			RHEE			RTOE			*39			*40			*41			*42			*43			*44			*45			*46			
		X1	Y1	Z1	X2	Y2	Z2	X3	Y3	Z3	X4	Y4	Z4	X5	Y5	Z5	X6	Y6	Z6	X7	Y7	Z7	X8	Y8	Z8	X9	Y9	Z9	X10	Y10	Z10	X11	Y11	Z11	X12	Y12	Z12	X13	Y13	Z13	X14	Y14	Z14	X15	Y15	Z15	X16	Y16	Z16	X17	Y17	Z17	X18	Y18	Z18	X19	Y19	Z19	X20	Y20	Z20	X21	Y21	Z21	X22	Y22	Z22	X23	Y23	Z23	X24	Y24	Z24	X25	Y25	Z25	X26	Y26	Z26	X27	Y27	Z27	X28	Y28	Z28	X29	Y29	Z29	X30	Y30	Z30	X31	Y31	Z31	X32	Y32	Z32	X33	Y33	Z33	X34	Y34	Z34	X35	Y35	Z35	X36	Y36	Z36	X37	Y37	Z37	X38	Y38	Z38	X39	Y39	Z39	X40	Y40	Z40	X41	Y41	Z41	X42	Y42	Z42	X43	Y43	Z43	X44	Y44	Z44	X45	Y45	Z45	X46	Y46	Z46	X47	Y47	Z47	

175	1.740	1362.48535	536.00122	1673.47498	1493.90686	549.16840	1669.40515	1376.77612	407.58987	1610.50427	1505.60974	420.42575	1611.12598	1435.93396	422.49820	1457.10327	1455.43018	402.36328	1128.77747	1430.35742	535.41101	1384.83521	1425.42297	583.51044	1212.02075	1521.54651	360.23380	1285.37390	1272.28027	465.18451	1411.18787	1207.49573	447.93594	1207.06445	1202.13257	437.84378	1094.87207	1179.30933	457.52673	945.91626	1210.57581	526.25647	832.73877	1185.87756	459.89197	826.68408	1178.65381	500.83176	745.85480	1593.23975	494.58667	1417.53589	1687.50061	475.87515	1219.67102	1700.24487	500.10983	1100.31116	1712.15601	550.97113	992.21619	1667.83740	651.17328	883.36322	1712.91882	604.98346	866.37561	1708.28625	664.88733	807.44434	1341.17517	574.68256	971.37024	1557.59912	585.37109	981.38098	1375.08032	417.14395	993.04193	1542.79810	432.99814	1004.79901	1293.46179	579.74921	658.27606	1319.65710	635.72144	506.62598	1328.23962	494.17877	305.73145	1364.73022	400.52820	161.12709	1412.69214	359.83762	166.77608	1361.68860	504.71490	61.46595	1612.10876	526.65247	642.15570	1588.20764	519.58746	516.07538	1581.13171	451.62830	256.76566	1531.64270	420.56418	72.74865	1489.63672	377.27820	49.97380	1520.05981	573.31250	37.90272	1428.69458	438.33096	1708.67896																					 
176	1.750	1361.78687	546.61139	1672.91003	1493.26257	559.82861	1669.04236	1376.30933	418.11536	1610.05701	1505.10376	431.08014	1610.85327	1435.69946	432.88663	1456.71082	1455.54944	412.22379	1128.45703	1430.22485	545.73383	1384.35583	1425.72815	593.59760	1211.43555	1521.58813	370.37094	1285.16296	1272.09314	475.58139	1410.57300	1207.37061	455.95212	1206.72278	1202.09290	443.92596	1094.76208	1179.32751	460.90817	945.49225	1210.62158	527.38776	831.05469	1186.18677	461.13599	826.07990	1178.75110	500.27136	744.55261	1592.99475	504.68851	1417.35986	1687.57593	486.60843	1219.55957	1700.75891	512.22961	1100.71326	1712.10999	566.14032	994.07520	1666.95544	669.43054	888.77612	1711.93213	623.86261	870.00128	1707.11743	685.68512	813.23334	1341.84705	585.32037	971.40033	1558.28650	594.39716	980.55365	1374.80139	427.62076	992.63025	1542.61047	442.06055	1004.16565	1293.04895	592.82605	659.30432	1319.74316	650.13751	508.22498	1328.20129	517.30646	300.06680	1365.04187	431.00644	150.91003	1413.12561	389.87888	154.43262	1362.47034	540.39941	57.32526	1611.78394	533.77582	641.26459	1587.72363	525.72681	515.22955	1580.78186	454.56763	256.63226	1531.39636	421.08002	72.99958	1489.41809	377.46375	50.50220	1520.10852	573.62640	37.67607	1428.06519	448.94290	1708.25757																					 
177	1.760	1361.15918	557.07434	1672.19153	1492.62793	570.46625	1668.52771	1375.85742	428.60422	1609.44653	1504.57056	441.63190	1610.44458	1435.37988	443.30191	1456.24158	1455.69824	422.18903	1127.97888	1430.00757	556.04108	1383.71826	1426.05505	603.63373	1210.72546	1521.66980	380.45944	1284.98474	1271.84705	486.15350	1409.82190	1207.46741	464.10385	1206.20984	1202.09888	450.13980	1094.54663	1179.31604	464.40326	944.98254	1210.64331	528.73126	829.39410	1186.10034	462.70602	825.59924	1178.84717	500.15182	743.41223	1592.70947	514.69873	1417.08862	1687.56152	497.30338	1219.37451	1701.06360	524.26678	1100.96045	1711.97083	581.01819	995.96326	1665.99902	687.28546	894.25433	1710.76929	642.20984	873.59973	1705.79248	705.94873	819.03070	1342.74255	595.44244	971.24164	1559.08875	603.42108	979.63763	1374.46558	437.59711	992.18262	1542.39429	451.19791	1003.30139	1292.48401	605.69995	660.18237	1319.82629	663.88013	509.50558	1328.17993	540.42755	294.26288	1365.43091	462.11740	140.65958	1413.40173	420.77213	142.12988	1363.13794	576.69415	53.53629	1611.09656	540.64850	640.27509	1587.61218	532.19086	514.50995	1580.33704	457.55139	256.48645	1531.23840	421.72153	73.35889	1489.34314	377.44714	51.28651	1520.19421	573.82751	37.46976	1427.41614	459.57162	1707.71436																					 
178	1.770	1360.51355	567.70856	1671.38269	1491.97998	581.08771	1667.89966	1375.37073	439.04260	1608.75867	1504.01685	452.10968	1609.92505	1434.94055	453.83771	1455.64771	1455.72559	432.20135	1127.36890	1429.85876	566.44366	1382.99219	1426.38770	613.68652	1209.89441	1521.64587	390.65149	1284.66064	1271.56580	496.76227	1408.94141	1207.15686	472.32004	1205.70605	1201.95178	456.47067	1094.27637	1179.44116	468.15701	944.46649	1210.54321	530.51514	827.81793	1186.04565	463.76129	825.19348	1178.86536	500.23553	742.25671	1592.40051	524.85388	1416.69373	1687.55566	507.92810	1219.10083	1701.31433	536.17035	1101.13977	1711.95520	595.74420	997.84247	1664.99365	704.66626	899.72064	1709.98962	660.66492	877.53650	1704.46228	725.76770	825.09491	1343.41150	605.78003	970.97644	1559.83875	612.40228	978.59717	1374.03784	448.02109	991.54254	1541.69641	461.48880	1001.81586	1291.93518	618.12860	660.82239	1319.97302	676.98901	510.40109	1328.18237	563.49774	288.38660	1365.74280	493.96860	130.59232	1413.64026	452.44049	129.82874	1363.70227	613.43274	50.46811	1611.05725	547.76489	639.33398	1587.15027	537.91455	513.47205	1579.86108	460.40540	256.41537	1530.93494	422.01886	73.56434	1489.15259	377.47189	52.03350	1520.48962	574.04724	37.36916	1426.71448	470.13089	1706.99036																					 
179	1.780	1359.78406	578.19562	1670.42554	1491.26038	591.70880	1667.13062	1374.79260	449.64108	1607.94641	1503.39868	462.72238	1609.28711	1434.56580	464.20831	1454.96899	1455.69958	441.97482	1126.70142	1429.60486	576.80890	1382.12537	1426.60828	623.77991	1208.94092	1521.55798	400.78687	1284.29346	1271.22607	507.42874	1407.99158	1206.99475	480.69061	1205.07629	1201.98132	463.03607	1093.93652	1179.25305	471.92587	944.00641	1210.50500	532.24231	826.21625	1185.99988	465.90378	824.73596	1178.84851	500.71796	741.18555	1592.04065	535.08588	1416.20935	1687.44531	518.66595	1218.77930	1701.43665	547.77307	1101.22595	1711.84790	610.12372	999.77893	1663.91736	721.63251	905.23358	1708.83606	678.39984	881.37970	1703.03235	745.11737	831.14166	1343.96655	616.06244	970.49799	1560.35547	621.58215	977.52063	1373.54272	458.05734	990.86542	1541.27966	470.72021	1000.74823	1291.42712	630.02478	661.06903	1320.05994	689.34723	510.82428	1328.15881	586.55902	282.52286	1365.95776	526.49536	120.76472	1413.92871	484.92645	117.75175	1364.30029	650.55817	47.99777	1610.75891	554.63464	638.33362	1586.93420	543.80664	512.47247	1579.36047	463.33099	256.29865	1530.64380	422.45258	73.88826	1488.79883	377.85913	52.26738	1520.70557	574.26514	37.53255	1425.97937	480.73410	1706.10229																					 
180	1.790	1359.07202	588.86859	1669.35779	1490.52686	602.38373	1666.24463	1374.25574	460.06079	1607.03955	1502.83801	473.20209	1608.53809	1434.15247	474.68857	1454.07117	1455.58777	451.80527	1125.94714	1429.35620	587.17908	1381.14111	1426.78784	633.88971	1207.88477	1521.45850	410.94305	1283.80005	1270.89185	518.17926	1406.90320	1206.82959	489.20007	1204.34473	1201.89111	469.78357	1093.55383	1179.24609	476.19257	943.44122	1210.25696	534.81317	824.78503	1185.93201	468.20844	824.32623	1178.85815	501.59616	740.24603	1591.64893	545.35156	1415.62878	1687.29285	529.37531	1218.37769	1701.61218	559.34839	1101.26941	1711.59717	624.17578	1001.61975	1662.86853	738.11517	910.65015	1707.48547	695.45538	885.03149	1701.57629	763.94641	837.09698	1344.46716	626.25562	969.93005	1560.84900	630.71960	976.33319	1373.05078	468.23111	990.11066	1540.86475	480.04337	999.55219	1290.86584	641.42053	661.04913	1320.07153	700.81677	510.76514	1328.06934	609.53131	276.66544	1366.16931	559.71832	111.48161	1413.98499	518.28107	106.12583	1364.85974	687.91541	46.41503	1610.39771	561.62677	637.26282	1586.73328	549.68884	511.41052	1578.84802	466.12323	256.15390	1530.35156	422.87405	74.34760	1488.59766	377.66083	53.27910	1520.42981	573.90039	37.22491	1425.25256	491.38165	1705.22021																					 
